<svg preserveAspectRatio="none" width="100%" height="100%" overflow="visible" style="display: block;" viewBox="0 0 70 19.0217" fill="none" xmlns="http://www.w3.org/2000/svg">
<g id="logo/operators/Live88" clip-path="url(#clip0_0_5)">
<path id="Vector" d="M28.4128 15.2177C28.1304 15.2177 27.8811 15.1528 27.7233 14.9899C27.5654 14.8269 27.4727 14.5991 27.4727 14.338V4.68439C27.4727 4.42336 27.5668 4.19551 27.7233 4.03254C27.8797 3.86958 28.0985 3.80469 28.4128 3.80469C28.6953 3.80469 28.9141 3.86958 29.1024 4.03254C29.2589 4.19551 29.353 4.42336 29.353 4.68439V14.338C29.353 14.5991 29.2589 14.8269 29.1024 14.9899C28.9141 15.1528 28.6953 15.2177 28.4128 15.2177ZM32.1085 6.73943C31.7637 6.73943 31.4826 6.64136 31.2625 6.44523C31.0423 6.2491 30.9495 5.95635 30.9495 5.63043C30.9495 5.30451 31.0437 5.04348 31.2625 4.84735C31.4812 4.65122 31.7637 4.52143 32.1085 4.52143C32.4533 4.52143 32.7343 4.61949 32.9545 4.84735C33.1733 5.04348 33.2993 5.30451 33.2993 5.63043C33.2993 5.95635 33.1747 6.21738 32.9545 6.44523C32.7662 6.64136 32.4533 6.73943 32.1085 6.73943ZM32.1389 15.2177C31.8565 15.2177 31.6072 15.1528 31.4494 14.9899C31.2929 14.8269 31.1988 14.5991 31.1988 14.338V8.53344C31.1988 8.27242 31.2929 8.04456 31.4494 7.8816C31.6058 7.71864 31.8246 7.65374 32.1389 7.65374C32.4214 7.65374 32.6402 7.71864 32.8285 7.8816C32.985 8.04456 33.0791 8.27242 33.0791 8.53344V14.338C33.0791 14.5991 32.985 14.8269 32.8285 14.9899C32.6402 15.1528 32.4214 15.2177 32.1389 15.2177ZM38.3713 15.2177C37.2442 15.2177 36.4618 14.5659 36.0229 13.229L34.5205 8.72813C34.4887 8.63007 34.4887 8.56517 34.4887 8.46711C34.4887 8.23925 34.5829 8.04312 34.7712 7.88016C34.9595 7.7172 35.2406 7.6523 35.5535 7.6523C35.7418 7.6523 35.8983 7.68547 36.0229 7.78209C36.1475 7.88016 36.2417 8.00995 36.3054 8.14118L37.9019 12.968C37.9642 13.229 38.0583 13.392 38.1206 13.4901C38.183 13.5881 38.2771 13.653 38.3713 13.653C38.4654 13.653 38.5596 13.5881 38.6219 13.4901C38.6842 13.392 38.7784 13.1959 38.8407 12.968L40.4372 8.14118C40.4995 7.97822 40.5936 7.84699 40.7196 7.78209C40.8443 7.68403 41.0021 7.6523 41.189 7.6523C41.502 7.6523 41.7844 7.7172 41.9714 7.88016C42.1597 8.04312 42.2538 8.20608 42.2538 8.46711C42.2538 8.532 42.2538 8.63007 42.222 8.72813L40.7196 13.229C40.2807 14.5659 39.4984 15.2177 38.3713 15.2177ZM46.7 15.2177C45.8858 15.2177 45.1658 15.0548 44.5704 14.7606C43.975 14.4664 43.5056 14.0107 43.1608 13.4554C42.8479 12.9017 42.6914 12.2484 42.6914 11.4667C42.6914 10.2597 43.0362 9.31364 43.6939 8.63007C44.3834 7.94505 45.3222 7.61913 46.5753 7.61913C47.3272 7.61913 48.0154 7.74892 48.5789 7.97822C49.1743 8.23925 49.6119 8.56517 49.9567 9.02233C50.3014 9.44631 50.4579 9.96837 50.4579 10.5221C50.4579 11.011 50.3014 11.3701 50.019 11.6311C49.7365 11.8922 49.3294 12.022 48.7977 12.022H44.5081C44.5081 12.5757 44.6964 12.9997 45.0716 13.2939C45.4468 13.555 46.0104 13.7179 46.7318 13.7179C47.5141 13.7179 48.1414 13.555 48.7049 13.1959C49.0179 12.9997 49.2366 12.9017 49.425 12.9017C49.5814 12.9017 49.7379 12.9666 49.8944 13.1295C50.0508 13.2925 50.145 13.4886 50.145 13.6833C50.145 13.9112 50.0508 14.1073 49.8625 14.2371C49.4554 14.563 48.986 14.7909 48.4529 14.9553C47.8894 15.1182 47.3258 15.2163 46.7 15.2163V15.2177ZM48.2037 10.6851C48.3602 10.6851 48.4862 10.6519 48.5485 10.587C48.6108 10.5221 48.6426 10.4241 48.6426 10.2611C48.6426 9.90203 48.4543 9.641 48.0791 9.44631C47.7038 9.25018 47.2026 9.15212 46.5767 9.15212C45.9509 9.15212 45.4496 9.28191 45.0744 9.5761C44.6991 9.83713 44.5427 10.2279 44.5427 10.6851H48.2065H48.2037ZM55.9065 15.2177C54.5288 15.2177 53.4321 14.9567 52.6817 14.4029C51.9298 13.8491 51.5546 13.0978 51.5546 12.0869C51.5546 11.5648 51.711 11.1091 52.0558 10.6851C52.4006 10.2611 52.8381 9.90203 53.4017 9.641V9.60783C52.9323 9.37997 52.5875 9.08578 52.3064 8.69496C52.0558 8.30414 51.8993 7.91188 51.8993 7.45617C51.8993 6.51013 52.2441 5.79339 52.9641 5.30306C53.6537 4.78101 54.6548 4.51999 55.9079 4.51999C57.161 4.51999 58.1621 4.78101 58.8517 5.30306C59.5412 5.82512 59.9165 6.54186 59.9165 7.45617C59.9165 7.91333 59.7919 8.30414 59.5094 8.69496C59.2269 9.08578 58.8835 9.37997 58.4141 9.60783V9.641C58.9777 9.90203 59.4471 10.2611 59.76 10.6851C60.1048 11.1091 60.2613 11.5662 60.2613 12.0869C60.2613 13.0978 59.886 13.8477 59.1023 14.4029C58.3504 14.9567 57.2856 15.2177 55.9079 15.2177H55.9065ZM55.9065 8.89109C56.5642 8.89109 57.0655 8.7613 57.4407 8.532C57.816 8.27098 58.0043 7.91188 58.0043 7.4879C58.0043 7.03074 57.816 6.70482 57.4407 6.47696C57.0655 6.2491 56.5642 6.11787 55.8747 6.11787C55.1851 6.11787 54.6853 6.24766 54.3086 6.47696C53.932 6.70626 53.7451 7.06391 53.7451 7.4879C53.7451 7.91188 53.9334 8.27098 54.3086 8.532C54.7157 8.75986 55.2474 8.89109 55.9051 8.89109H55.9065ZM55.9065 13.653C56.6889 13.653 57.3161 13.5232 57.7232 13.2622C58.1621 13.0012 58.3809 12.6104 58.3809 12.1215C58.3809 11.5677 58.1621 11.1437 57.7232 10.8495C57.2843 10.5553 56.6902 10.3924 55.9065 10.3924C55.1228 10.3924 54.5288 10.5553 54.0899 10.8495C53.6509 11.1437 53.4321 11.5677 53.4321 12.1215C53.4321 12.6104 53.6509 13.0026 54.058 13.2622C54.4969 13.5232 55.1228 13.653 55.9051 13.653H55.9065ZM65.6448 15.2177C64.2671 15.2177 63.1704 14.9567 62.4199 14.4029C61.6681 13.8491 61.2928 13.0978 61.2928 12.0869C61.2928 11.5648 61.4493 11.1091 61.7941 10.6851C62.1389 10.2611 62.5764 9.90203 63.14 9.641V9.60783C62.6706 9.37997 62.3258 9.08578 62.0447 8.69496C61.7941 8.30414 61.6376 7.91188 61.6376 7.45617C61.6376 6.51013 61.9824 5.79339 62.7024 5.30306C63.392 4.78101 64.3931 4.51999 65.6462 4.51999C66.8993 4.51999 67.9004 4.78101 68.59 5.30306C69.2795 5.82512 69.6548 6.54186 69.6548 7.45617C69.6548 7.91333 69.5301 8.30414 69.2477 8.69496C68.9652 9.08578 68.6218 9.37997 68.1524 9.60783V9.641C68.716 9.90203 69.1854 10.2611 69.4983 10.6851C69.8431 11.1091 69.9995 11.5662 69.9995 12.0869C69.9995 13.0978 69.6243 13.8477 68.8406 14.4029C68.1206 14.9567 67.0239 15.2177 65.6462 15.2177H65.6448ZM65.6448 8.89109C66.3025 8.89109 66.8038 8.7613 67.179 8.532C67.5542 8.27098 67.7425 7.91188 67.7425 7.4879C67.7425 7.03074 67.5542 6.70482 67.179 6.47696C66.8038 6.2491 66.3025 6.11787 65.613 6.11787C64.9234 6.11787 64.4235 6.24766 64.0469 6.47696C63.6703 6.70626 63.4834 7.06391 63.4834 7.4879C63.4834 7.91188 63.6717 8.27098 64.0469 8.532C64.4858 8.75986 64.9857 8.89109 65.6434 8.89109H65.6448ZM65.6448 13.653C66.4271 13.653 67.0544 13.5232 67.4615 13.2622C67.9004 13.0012 68.1192 12.6104 68.1192 12.1215C68.1192 11.5677 67.9004 11.1437 67.4615 10.8495C67.0225 10.5553 66.4285 10.3924 65.6448 10.3924C64.8611 10.3924 64.2671 10.5553 63.8281 10.8495C63.3892 11.1437 63.1704 11.5677 63.1704 12.1215C63.1704 12.6104 63.3892 13.0026 63.7963 13.2622C64.2352 13.5232 64.8611 13.653 65.6434 13.653H65.6448Z" fill="var(--fill-0, #B5B5C5)"/>
<g id="Vector_2">
<path d="M7.05896 9.39183H2.41672C1.08113 9.39183 0 8.31842 0 6.99237V2.3833C0 0.268601 2.57559 -0.804802 4.10097 0.709687L8.77414 5.34947C10.2686 6.83325 9.18747 9.39043 7.05755 9.39043L7.05896 9.39183Z" fill="var(--fill-0, #9292AA)"/>
<path d="M17.0112 19.0203H11.8291C10.6215 19.0203 9.63596 18.0419 9.63596 16.8428V11.7927C9.63596 10.5936 10.6215 9.61516 11.8291 9.61516H17.0436C18.9823 9.61516 19.9369 11.9825 18.5057 13.3086C17.9335 13.8446 17.9335 14.7602 18.5057 15.3283C19.9046 16.6544 18.9823 19.0217 17.0112 19.0217V19.0203Z" fill="var(--fill-0, #9292AA)"/>
<path d="M6.1198 10.0339L5.48855 10.6606C5.11037 11.0361 4.4974 11.0361 4.11922 10.6606L3.48797 10.0339C3.21664 9.76451 2.84689 9.61236 2.46308 9.61236H1.69687C0.760552 9.61236 0.00137294 10.3661 0.00137294 11.2957V14.2521C0.00137294 16.8065 2.10458 18.9854 4.67595 19.0189C7.31058 19.0524 9.47565 16.9252 9.44331 14.3164V11.2957C9.44331 10.3661 8.68413 9.61236 7.74781 9.61236H7.14328C6.75947 9.61236 6.38972 9.76451 6.11839 10.0339H6.1198Z" fill="var(--fill-0, #9292AA)"/>
<path d="M19.1411 2.62621V1.70077C19.1411 0.771135 18.3819 0.0173799 17.4456 0.0173799H11.3623C10.426 0.0173799 9.66685 0.771135 9.66685 1.70077V2.62621C9.66685 3.07288 9.8454 3.50001 10.1631 3.81686C10.658 4.3082 10.658 5.10383 10.1631 5.59517C9.8454 5.91063 9.66685 6.33915 9.66685 6.78582V7.71126C9.66685 8.64089 10.426 9.39465 11.3623 9.39465H17.4456C18.3819 9.39465 19.1411 8.64089 19.1411 7.71126V6.78582C19.1411 6.33915 18.9626 5.91202 18.6448 5.59517C18.15 5.10383 18.15 4.3082 18.6448 3.81686C18.9626 3.5014 19.1411 3.07288 19.1411 2.62621Z" fill="var(--fill-0, #9292AA)"/>
</g>
</g>
<defs>
<clipPath id="clip0_0_5">
<rect width="70" height="19.0217" fill="white"/>
</clipPath>
</defs>
</svg>
