<svg width="70" height="16" viewBox="0 0 70 16" fill="none" xmlns="http://www.w3.org/2000/svg">
  <g transform="translate(0.546,0.976)">
    <path d="M7.8085 2.50991C6.006 -0.0203183 2.7195 -0.734737 0 0.81317C1.064 3.35829 1.862 6.34619 7.1015 6.52108C7.7175 6.5434 8.393 6.5248 9.1385 6.46154C9.03 4.86154 8.54 3.53689 7.8085 2.50991Z" fill="#B5B5C5"/>
  </g>
  <g transform="translate(0.546,7.928)">
    <path d="M6.8425 0.0199337C3.689 0.187376 2.2085 1.40784 1.2845 2.91482C0.742 3.8004 0.3885 4.78644 0 5.71296C3.8255 7.88598 8.7675 5.59389 9.1385 0.0645844C8.2845 -0.00239231 7.525 -0.0172756 6.8425 0.0199337Z" fill="#B5B5C5"/>
  </g>
  <g transform="translate(8.127,13.525)">
    <path d="M0.798 0.781396C0.77 0.781396 0.749 0.785116 0.7 0.785116H0.6475V0.520931H0.7175C0.805 0.520931 0.8435 0.52093 0.875 0.539535C0.938 0.573023 0.938 0.636279 0.938 0.651163C0.938 0.773953 0.833 0.781396 0.798 0.781396ZM1.092 0.651163C1.092 0.550697 1.0535 0.483722 1.0045 0.442791C0.9345 0.383257 0.8645 0.383257 0.7595 0.383257H0.504V1.23163H0.651V0.91535H0.784L0.9415 1.23163H1.113L0.9345 0.885582C0.98 0.870698 1.092 0.814883 1.092 0.651163ZM0.7735 1.47721C0.434 1.47721 0.1575 1.18326 0.1575 0.822326C0.1575 0.461396 0.434 0.167442 0.7735 0.167442C1.113 0.167442 1.3895 0.461396 1.3895 0.822326C1.3895 1.18326 1.1165 1.47721 0.7735 1.47721ZM0.7735 0C0.3465 0 0 0.368373 0 0.822326C0 1.27628 0.3465 1.64465 0.7735 1.64465C1.2005 1.64465 1.547 1.27628 1.547 0.822326C1.547 0.368373 1.204 0 0.7735 0Z" fill="#B5B5C5"/>
  </g>
  <g transform="translate(11.718,2.248)">
    <path d="M0 0H7.6825V1.8493H1.995V4.5507H5.782V6.4H1.995V9.4214H7.8575V11.2707H0V0Z" fill="#B5B5C5"/>
  </g>
  <g transform="translate(19.026,5.510)">
    <path d="M0 0H2.044L3.8325 5.58884L5.495 0H7.476L4.7285 8.01488H2.891L0 0Z" fill="#B5B5C5"/>
  </g>
  <g transform="translate(26.187,5.354)">
    <path d="M0 4.17861C0 1.73395 1.596 0 3.8815 0C6.1495 0 7.7455 1.73395 7.7455 4.17861C7.7455 6.58977 6.1145 8.32372 3.8325 8.32372C1.568 8.32372 0 6.62326 0 4.17861ZM5.7365 4.2307V4.16372C5.7365 2.63442 5.033 1.71907 3.885 1.71907C2.7195 1.71907 2.016 2.63442 2.016 4.16372V4.2307C2.016 5.72651 2.702 6.60837 3.8535 6.60837C5.019 6.60837 5.7365 5.72651 5.7365 4.2307Z" fill="#B5B5C5"/>
  </g>
  <g transform="translate(34.832,2.096)">
    <path d="M0 0H1.9985V11.427H0V0Z" fill="#B5B5C5"/>
  </g>
  <g transform="translate(37.968,5.510)">
    <path d="M0 4.80372V0H1.981V4.68837C1.981 5.76 2.4605 6.38512 3.3565 6.38512C4.396 6.38512 4.8265 5.45116 4.8265 4.07442V0H6.8075V8.01488H4.8265V6.87628C4.4275 7.70977 3.7415 8.16744 2.765 8.16744C1.0535 8.16744 0 6.87628 0 4.80372Z" fill="#B5B5C5"/>
  </g>
  <g transform="translate(45.514,2.846)">
    <path d="M1.071 8.55442V4.36093H0V2.66419H1.071V1.15349L3.003 0V2.66791H4.487V4.36465H2.9855V8.35721C2.9855 8.74791 3.1605 8.91907 3.528 8.93395H4.4065V10.6828H2.8735C1.421 10.5935 1.1025 9.87907 1.071 8.55442Z" fill="#B5B5C5"/>
  </g>
  <g transform="translate(50.904,2.282)">
    <path d="M0 0H2.06149V2.05395H0V0ZM0.0315 3.22977H2.03V11.2447H0.0315V3.22977Z" fill="#B5B5C5"/>
  </g>
  <g transform="translate(53.837,5.354)">
    <path d="M0 4.17861C0 1.73395 1.596 0 3.8815 0C6.1495 0 7.74551 1.73395 7.74551 4.17861C7.74551 6.58977 6.118 8.32372 3.8325 8.32372C1.568 8.32372 0 6.62326 0 4.17861ZM5.7365 4.2307V4.16372C5.7365 2.63442 5.033 1.71907 3.885 1.71907C2.7195 1.71907 2.016 2.63442 2.016 4.16372V4.2307C2.016 5.72651 2.702 6.60837 3.85351 6.60837C5.01901 6.60837 5.7365 5.72651 5.7365 4.2307Z" fill="#B5B5C5"/>
  </g>
  <g transform="translate(62.468,5.339)">
    <path d="M0.00350 0.171163H1.9845V1.47721C2.3835 0.543255 3.11851 0 4.18951 0C5.83451 0 6.80751 1.17209 6.80751 3.3786V8.18604H4.82651V3.49767C4.82651 2.37767 4.42751 1.80093 3.50001 1.80093C2.5585 1.80093 1.981 2.61581 1.981 4.11163V8.18604H0V0.171163H0.00350Z" fill="#B5B5C5"/>
  </g>
</svg>
